<svg xmlns="http://www.w3.org/2000/svg" viewBox="0 0 120 120" xmlns:xlink="http://www.w3.org/1999/xlink"><defs><polygon id="a" points="0 119.94 120 119.94 120 0 0 0"/></defs><g fill="none" fill-rule="evenodd"><mask id="b" fill="white"><use xlink:href="#a"/></mask><path fill="#1F8DED" d="M104 65.98a4 4 0 0 1-8 0V30a4 4 0 0 1 8 0v35.98zM102.6 91c-.61.53-15.43 12.97-42.6 12.97S18.01 91.54 17.4 91a4 4 0 0 1 5.2-6.08c.23.2 13.46 11.05 37.4 11.05 24.24 0 37.27-10.93 37.4-11.04a4 4 0 1 1 5.2 6.07zM16 30a4 4 0 0 1 8 0v35.98a4 4 0 0 1-8 0V30zm20-8a4 4 0 0 1 8 0v53.44a4 4 0 0 1-8 0V22zm20-2.02a4 4 0 0 1 8 0v58a4 4 0 0 1-8 0v-58zM76 22a4 4 0 0 1 8 0v53.44a4 4 0 0 1-8 0V22zm29-22H15A15 15 0 0 0 0 15v90a15 15 0 0 0 15 15h90a15 15 0 0 0 15-15V15a15 15 0 0 0-15-15z" mask="url(#b)"/></g></svg>